<svg xmlns="http://www.w3.org/2000/svg" viewBox="0 0 240.96 245.87"><defs><style>.cls-1{fill:#fff;}</style></defs><title>tree_1</title><g id="Layer_2" data-name="Layer 2"><g id="Layer_8" data-name="Layer 8"><path class="cls-1" d="M202.07,52.39c-.21-1.12-.42-2.24-.61-3.23.35-.35.73-.8,1.18-1.18,1-.86,2.05-1.69,3.08-2.53,0,0,.11-.08.14-.06,2.47,1.35,2.24-.94,2.84-2.12.2-.38.43-.75.7-1.23a3.15,3.15,0,0,0,2.53,2.3,3.17,3.17,0,0,1-.37,1c-1.28,1.44-1.24,3,.16,4.2.63.55,1.17.42,1.31-.4s0-1.81.18-2.69a11.31,11.31,0,0,1,.67-1.9l-2-.15c.46-.62.9-1.25,1.37-1.86s.89-1.1,1.47-1.8l.91.34-.33-1.93.31-.11c.33.65,1,1.36.92,1.94-.32,2,1.21,3,2.36,4.68l.45-2.69,1.74-2.26.71,1.48,2.68-1.64,1.88,2.06,1-2.62.31,1.63c1.07-.56,1.07-.56.94-2.71l.41-.12c.32,1.29.61,2.6,1,3.88a4,4,0,0,0,.79,1.44c.6.69,1,.62,1.36-.33.3-.68,1.16-1.11,1.89-1.77l1.22,2.44.22-.1a20.19,20.19,0,0,1,0-2.2,1.91,1.91,0,0,1,.51-1.27c.3-.21.89,0,1.35,0s.7.11,1.39.24c.35,1.34.8,3.1,1.26,4.87l-.18.1-1.6-2.58-.44.09v5c-1.25.46-1.23,1,.09,2.22l.44-.11-.57-2.16c2.5.52,3,1.19,3.17,3.92a3,3,0,0,1-.12,1.44L239,49.63c-.36,1.38-.62,2.38-.91,3.53l-1.76-2a4.19,4.19,0,0,0-.84,5.12c.77,1.62-1.05,2.05-1.47,3.12-.21.53-.94.86-1.51,1.35l-.77-1.55L231,61.51l-1.67-2.23-.65,2-.55-1.82-1.9,2-1-2.25-.54,1.22-.77-.57.37,2.23-1.52,1.79-.34-.25-2.36,2.86c.14.37.41,1,.59,1.59.23.86.63,1.13,1.56.89,1.75-.44,2.86.37,3.36,2.13a2.89,2.89,0,0,0,1,1.58c1,.64,1.09,1.35.56,2.4l-.49-.87h-.34c-.09.69-.19,1.37-.33,2.45l-1.12-1.82-1.06,1.33-.44-1.76c-1,.77-1.4.53-2.29-1.38l-.73.6-2.5-1.39-.71,1.36-.41-1.36-.31.27-.08,1.61-1.26-2.43c-1.14,2.61-1.27,2.67-3.59,1.51.13,1,.24,1.77.29,2.15l-1.49,1.06c-.36.27-.71.55-1.06.83-.52-1.22-1.26-1.16-2.44.23a4.5,4.5,0,0,0-.75-1.35,1.28,1.28,0,0,0-1.2-.2,31.27,31.27,0,0,0-4.51,3.9c-.61.69-.59,2-.62,3.07,0,.32.77.69,1.23,1,1,.6,1.85,1.68,3.16.8l2.26,4-.27.2-1.21-1-.32.19.55,2.17-1.52-1.11V92.4c-1.19-.76-1.36-4.16-3.22-.82l-1.17-3.23-.37.05-.38,1.4-1.63-1-.07-1.13-.66.39-1.61-2.86-.85,1.6-.31-.7c-1.2.91-1.1.86-.45,2.09s1,2.54,1.58,3.76c.23.47.54,1.61,1.48.51.07-.08.58.07.75.25a12,12,0,0,1,.93,1.27h2l.09.37.79-.89c.16.09.34.14.4.24.66,1.27,1.62,1,2.57.46,1.94-1.12,2-1.12,2.92,1-.24,0-.69-.09-.71,0-.14.45-.41,1-.24,1.38.82,1.58,1.24,3.45,2.95,4.46.14.08.18.32.11.64l-.85-.75-.25.12.94,2.72-.27.11-.93-1.75-.45,0c-.16,1.31-.32,2.62-.5,4.06L205,107.28c-.33-.79-.7-1.69-1.21-2.9l-.63,3.78-.46,0c-.3-1-.6-2-.93-3.16L199.93,108l-1-.58-.9,1.5L196.72,107l-.63,1.11-4.35-2-2.46,1.69a2.49,2.49,0,0,0,1.35,2.77c.46.28.71.86,1.13,1.22.24.22.65.24.94.42a2.33,2.33,0,0,1,.87.73,1.07,1.07,0,0,1-.07,1c-.24.2-.71.12-1.16.17.76,2.25,1.55,4.61,2.37,7.06,1.25-1.59,1.37-1.59,3-.4a1.24,1.24,0,0,0,.84.23c1.68-.27,2.08.18,1.64,1.88a13.51,13.51,0,0,0-.22,1.46l-1.44-2.62-1.11,2.58-2.66-.42v1.35l-1.91-2.61c.08.9.13,1.38.19,2.1L191.61,123c-.2.94-.38,1.84-.66,3.15l-.85-2.25-.85,1.8-1.09-2.59-.44.17V121l-2.08-.1a1.75,1.75,0,0,0-.16.19,6,6,0,0,0,.42,7.13,13.33,13.33,0,0,1,1.28,3.15l-.32.21-1.42-.71a22.16,22.16,0,0,1-.34,2.37c-.19.75-.53,1.47-.9,2.47-1.15-1.74-1.71-.12-2.6.1l-.69-1.06-.65,1.09c-.31-.36-.58-.69-.87-1-.61-.7-.95-2.33-2.27-.64a2.59,2.59,0,0,1-1-.74,7.3,7.3,0,0,0-.85-1.74l-2,3.88a8.68,8.68,0,0,0-.49-1.47c-.31-.58-.72-1.11-1.08-1.66l-1.41,1.24c-.94-.93-1.51.11-2.27.84-.26-2-.51-3.8-.79-5.82-.76.43-1.52,1.15-2-.11a2.12,2.12,0,0,0-1.3.2c-.3.16-.44.62-.67,1l-1.8-2.08-.47,2.74c-.42-1.15-.86-1.7-1.78-.49-.57.73-1.49,1.18-2.07,1.9a3.82,3.82,0,0,0-.57,1.75c-.12.75-.12,1.53-.2,2.64l-1.5-1.27-.37.19c.24.51.35,1.22.76,1.52.94.69.77,1.28.07,2l-1.31-1.18-1.86,1.25-.52-1.23a27.48,27.48,0,0,0-2.86,3.82c-1.42,2.83-2.53,5.83-3.94,8.68-.54,1.1,0,1.79.34,2.65s1.31,1.55.25,2.5c-.27.24-.51.52-.76.78a6.37,6.37,0,0,1-.67-.9,7.6,7.6,0,0,1-.36-1.08c-1.48,1-2,2.7-3,4-1.18,1.51-1.79,3.46-2.71,5.35,1.22.3,1.88.78,1,2l-.45-1-.55,1.34c-.8-.91-1.34-.47-1.57.38a54.58,54.58,0,0,0-1.7,6.95c-.77,5.5-1.52,11-1.88,16.55-.38,5.69-.41,11.41-.35,17.12.08,7.55,1,15.08.28,22.63-.13,1.46-.7,2.88-.82,4.34-.36,4.06-.59,8.13-.87,12.19h-4.29c0-1.68.09-3.37,0-5.05-.22-3.71.63-7.27,1.18-10.9a52.35,52.35,0,0,0,.53-10.83,146,146,0,0,1,.07-14.94c.23-5.75-.18-11.53,0-17.28.15-4.08-2.58-6.66-4.25-9.82-1.12-2.13-2.31-4.23-3.47-6.33-.41-.74-.84-1.45-1.41-2.43l-.74,1.61c-1.36.09-3-1.58-4.08.74-.42-1.25-.63-2.46-2.35-2.1-.44.09-1-.59-1.63-1a5.88,5.88,0,0,1,6.19-2.91c.43-1.32-.46-1.8-1.19-2.27-1.33-.86-2.75-1.56-4.07-2.44-2.37-1.58-4.65-3.31-7-4.86-2.91-1.9-5.71-4.17-8.9-5.37-2.86-1.07-4.84-3.24-7.46-4.52-.89-.43-1.46-1.49-2.24-2.19a12.48,12.48,0,0,0-2.35-1.77c-1-.52-2.07-.87-2.4.82a4.72,4.72,0,0,1-.67,1.17c-.59-.75-1.08-1.63-2.19-.74-.21.17-1-.29-1.49-.59a5.6,5.6,0,0,1-1-1L75,142.51c-.73-.28-1.69-1.2-2.38.3L72.36,141l-1.64,2.63-1.45-2.84c-.4,1.2.64,2.92-1.4,2.69-1.53-1.69-.52-3.62-.42-5.4,0-.77,1.16-1.47,1.77-2.22a5.68,5.68,0,0,0,.47-.84l-.3-.41-2,1,.11.11c-.31.09-.83.1-.87.26-.37,1.27-1.51,2.37-.67,3.94.31.58,0,1.52-.07,2.51a10.83,10.83,0,0,0-1.08-.69,4.38,4.38,0,0,0-.82-.27,4.23,4.23,0,0,0,.2.87c.2.47.46.91.83,1.64l-1.61-.78-.61,1.12-.6-1-.55,1.27c-.12-.17-.23-.26-.26-.37A9.48,9.48,0,0,0,61,142.7c-.3-.62-.72-1.09-1.52-.52a12.88,12.88,0,0,1-1.59.79l-.26,1.47-1-1.46-.45,2.47c-1.08-.09-.36-3.64-2.73-1.06a15.17,15.17,0,0,1,.3-2.88c.17-.58.79-1,1.22-1.51a7.36,7.36,0,0,0,1.23-1.41,14.27,14.27,0,0,0,1.08-3.08,1.66,1.66,0,0,0-.71-1.45l-.37,2.1-1.66-2.28-.48.75-.68-.91-1.21,1.62-2.6-1.73-.56,2.33-1.89-4.36L45.07,134l-.37-.27-.13-1.8-.72.21-1.29-3.39-2.14,2.38-.16-2.1-1.75,3.11-.17-1.59a5.09,5.09,0,0,0-.64,6.48c.22.3.5.88.37,1.05-1,1.32.34,2,.77,2.95.1.2.81.24,1.2.17a5.11,5.11,0,0,1,4.56.85,6.8,6.8,0,0,0,1.21.67l-.73,1L44,142.05l-1.05,3.21-3.57-1.5-.45.55-1.12-2.43-.5,1.25-.37-.21.77-2.59-3-.42-.31-2.23L32.9,140l-.26-1.91-.79.25c0-2.77,3.37-9.28,5.29-10.09v1.15l.33.1.86-1.84c1.2-.31,1.88-1.93,1.57-4.47l-1.71,1c.12-.77.19-1.25.26-1.73-1.36-.71-1.37-1-.1-1.94s2.68-1.89,4-2.89a.91.91,0,0,0,0-.89c-.57-.62-1.24-1.15-1.87-1.72l.28-.32-2.34-.21-.77,1.5c-.42-1.49-1.09-1.11-1.93-.3l-1-3.61-1.61,2.39H31.41l-.36-1.06-1.34,1.28c-1-1.48-1.52-1.62-2.4-.6l-.49-.65-1.14,1.38-.87-1.48-.43,0v2.45l-1.9,2.58L21.31,116l-1.47,2.39-.53-1.33-.24,0v2l-1.51-1.93-.42,3.06-1.08-2.25-2,2-.28-1.34-2.88,3,.47-3.31-.49-.22c1.37-.78,2.72-1.59,4.1-2.35.92-.5,1.92-.85,2.79-1.42.35-.23.44-.86.64-1.31l-1.52-.6-.19-1.25-.62,1.37-.57-2.3-1.28,2.64a8.52,8.52,0,0,0-2.18-.6c-.18,0-.43,1-.59,1.64a17.46,17.46,0,0,0-.23,1.79L10,113.34l-1,2.32A5.15,5.15,0,0,0,8.18,114c-.25-.23-.88,0-1.46,0l-.21-.55-.41-.33-.68,1.49-.27-.2a20.52,20.52,0,0,1,0-2.22,1.11,1.11,0,0,1,.54-.79c1.9-.79,2.14-1.25,1.65-3.65l-.85.37.08-.35a3.38,3.38,0,0,1-1.32-.34c-.51-.39-1.55-.43-1.23-1.53a7.16,7.16,0,0,0,.09-1.22L2.61,106l-1-3.44L.32,103.71,0,103.5a30.71,30.71,0,0,1,2.33-3.08A1.75,1.75,0,0,1,4,100.08a28.82,28.82,0,0,1,3.54,2.38c.6.44,1.05,1.09,1.66,1.52,1.57,1.11,2.38.93,4-.81a4.82,4.82,0,0,1,2,4.37l3.43-5.5,1,1.1,2.09-1.52,1.43,2.26,5.4-2.13.75,1,1.09-2.81.16.06c-.19,1.06-.43,2.12-.52,3.19,0,.32.36,1,.59,1a1.35,1.35,0,0,0,1.06-.6c.43-.91.7-1.9,1.15-3.18L35,103.5l.49-.18c-.57-1-1.85-2.15.11-2.23l.81-2.5.51.14v1.51l.39.16A30.2,30.2,0,0,0,39.07,97c.57-1.5,3.2-3,4.57-2.17,1,.6,1.4,0,1.61-.41s.06-1.29-1-.86c-.16.06-.7-.84-1.26-1.53l-.44,1.87-1-1.29-4,1.36c-.91.47-1.7-1.57-2.87,0C33.3,92.66,33,92.83,32,96l-.52-2.72-1.23,2.36c-.17-.75-1.44-1.36-.22-2.15.69-.45,1.24-1.57,2.17-.29.87-.9,2.44-1.38,1.15-3.08l-.55.83c-.61-1.13-1.24-2.1-2.81-1.38-.48.23-1.27-.26-1.93-.32a14.81,14.81,0,0,0-1.88,0c-.35,0-.69.05-1,.1-.71.11-1.42.24-2.43.42-.21.62-1,.61-1.9.39-.23-.06-.59.23-.81.44a12.86,12.86,0,0,0-1,1.23l-.2-1.54H15.88l-.3-2.23-1.15,1.63.34-1.46-2.42,1.37-.53-2.89L11,88.33V86c-1.33,1.42-2.23,1.24-3.51,0-.57-.55-1.27-.81-1.38-1.73a.54.54,0,0,0-.38-.37c-1.28,0-.78-.85-.53-1.32a20.75,20.75,0,0,1,1.53-2.25c1,.83,1.9,1.63,2.85,2.37.76.6,1.24.23,1.72-.49,1.13-1.71,1.15-1.67,2.51-.27.25.26.74.29,1.12.43a12,12,0,0,0,.38-2.18,12.09,12.09,0,0,1-.25-1.7c2.23,1.31,4.58,1.17,6.82,1.39.61.06,1.48-.7,1.94-1.31s.66-1.29,1.82-1.07,2.07-.79,2.65-1.86a.8.8,0,0,0,0-.44c-.09-.85-2.15-1.68-3.06-1.18,1.32-1.63,1.88-3.34.34-5.23a10.54,10.54,0,0,0,0,1.59c.32,2.07.3,2.1-1.6,1.72V69.59c-.43.29-1,1-1.61,1s-1.34-.41-2.13-.69l-.41.88-.5-.13,1.47-6-2,1c1.27,1.62,1.25,1.72-.19,2.56v3.25l-.39,0L17.81,69l-1.2,2.09c-.52-1,.15-3.16-2.29-1.91l1.32-4.41,3,1.71c-.43-3,.92-5,2.56-7.1l2.3,3.22c1.05-.33,1.05-.33,1.78,3.53C27.54,65.71,27,63.22,28.4,62l.29.93c1.42-.21,2.29.62,3.17,3,1-.08,2.26-.51,3.11-.13s1.08,1.58,1.36,2L38.76,64A17,17,0,0,0,40,65.43a6.91,6.91,0,0,0,1,.71c.24-.4.73-.86.66-1.19-.34-1.49.33-2.63,1-3.8.42-.7.81-.86,1.41-.23s1.28.47,1.95-.15a4.82,4.82,0,0,1,4.53-1.21c1,.22,1.34-.71,1-2.12l-2.3-.86-.93,1.49-.76-1.91A5.19,5.19,0,0,1,53.26,56l1.22-1.85.4,1.74.68-1.73.92,1,2.2-2c1.22,1.19,2.18,1,3.27-.76a32.77,32.77,0,0,0,1.73-4.2A10.78,10.78,0,0,1,61,49.92a9,9,0,0,1-2.79-.3l-.32-1.27-1.11,1.86L56,48.91l-.8.93c-.81-.35-.63-2.57-2.45-1.09l.21-2.84-.35-.19L51,47.81c-.51-2-1-3.94.86-5.72a11.2,11.2,0,0,0,2.33,1.08,2.63,2.63,0,0,0,1.75-.59h1.81l.94,1.22c1.73-1.33,1.73-1.92.5-3.21A1.67,1.67,0,0,1,59,39.08a9,9,0,0,1,1.74-2.45c1.43-1.38,1.5-2.42.21-4.06a6.47,6.47,0,0,1-.7-1.84l-1.3.88.22,3-.42.07-.61-2.47-2.73,3.24-.5-2-2,.24-.49-2.16L50.92,34.2l-.4-.2-.45-2.47L47,35.32l-.73-2.85-1,2.53c-.09-2.86-.09-2.86-1.11-2.7l4.36-7.52c0-.06.08.18.23.54l1-.82-.1,2.08.64.07.47-4.26L53,26.62a9.24,9.24,0,0,1,2-2.06c.54-.28,1.44.13,2.24.24l1.33-2.94L59,22l-.46,2.17,2-2.11c-.08,1.1-.17,2.2-.25,3.3l.42.09,1.11-2.82c.72-.16,1.58-.57.85-2.33l-2.16,1.81.46-2.74-.34-.13-1.18,1.4-.14-2.72-1.38.83L57.7,15.1l-2,2.25L55.17,17c.54-1.22.84-2.64,1.69-3.57.61-.67,2-.69,3.23-1.08L61,14.78h1.27l.39-1L62.78,17h.32l1.23-3.31,1.53.91.1.78,1.12-1.48,1,3.36,1.17-1.55.14,1.13,3.54-.71v5.71l.19,0,.76-3.33,1.14,1-.35-4.49.54-.06.47,4.41h1v-2.2c.35,0,.7,0,.88.16a3.06,3.06,0,0,0,3.31.66c.43-.15,1.34.92,2,1.48a12.11,12.11,0,0,1,1.07,1.18c.48-.44,1-.87,1.43-1.34.12-.12.1-.37.16-.65l1.2.53L84,24l-1-.52-.55.81-2.19-1.89c-2.55,2.77-2.59,4.54,0,6.39l.4-1,.32.06V33l3.18-1,.88,3.83-.46-.18c-.64.61-1.27,1.23-1.93,1.82a10.85,10.85,0,0,1-1,.71,1.23,1.23,0,0,0-.6.82c.91-.11,1.84-.18,2.73-.37.41-.08,1-.36,1.09-.66.37-1.55,1.46-1.56,2.67-1.42,0,.25.06.49.1.73l.29,0,.57-2.65,1.31,1.46L92.08,33a50,50,0,0,1,3.39,4.49c.3.49-.16,1.44-.28,2.23l-1.41-.12c-.44,1.71.43,3.06,1.21,4.26a13.19,13.19,0,0,0,3.19,3c.28-2.3.9-4.5.06-6.7-.49-1.26.16-1.73,1.24-1.8s1.61-.72,1.47-1.69-.27-2.24-1.85-2.14c1.47-1.05,2-2.23,1.26-3.17-.17-.23-.71-.18-1.33-.31l-.47-1.48-.83.75-.29-.09a23.3,23.3,0,0,1,1-3.22,1.7,1.7,0,0,1,1.4-.43A10.89,10.89,0,0,1,101,28.71l.51-.89,1.75,2.78c-.11-.9,1.08-1.66.17-2.77-.19-.23.82-1.53,1.38-2.26.18-.24.68-.24,1.08-.35l.55,1,1.72-1,.12,1.19c1.41,0,2.1-.75,2-2.07a7.54,7.54,0,0,0-.64-2.8,3,3,0,0,1-.27-1.88c.06-.48-.46-1-.73-1.54-2.06,1.59-.7,4.05-1.41,6-.25-1.86.45-4-1-5.49L103.45,20l-.86-1.81c-.69,1.72-1.23,3.17-1.87,4.58s-.76,3.07-2.79,3.36l-1.15-1.41L96,27.89c-1.25-1.29-1.84-1.28-2.79-.12-1.46-1.17-3.32-2-3.81-4.14l-.38,1-.35-.06c.1-1.58.21-3.16.31-4.73a1.29,1.29,0,0,0,1.75.62,3,3,0,0,0,1.06-1.76,1.42,1.42,0,0,0-.52-1.24,5.94,5.94,0,0,0-2.06-.21,1.82,1.82,0,0,0-.2,2.62c-.26.29-.79.63-.73.83.45,1.78-1.19,2.38-1.69,3.6L86,24.05c.56-1.29,1.08-2.61,1.71-3.86.44-.86,1.06-1.58.41-2.67-.2-.32.2-1,.35-1.54L89.8,11.6l-.6-.39-.9,1.5-.64-2.16-1.27.57c-1.29-1.61-1.22-3.28.27-4.44l.62,1.48c.19-1.85.39-3.62,2.12-4.78-.47,1.6.53,3.21,3.14,5l.53-2.09.38,0,1.69,3.54L93.72,9.7a12.57,12.57,0,0,0,.49,1.2A10,10,0,0,0,95.45,13a8.26,8.26,0,0,0,1.8,1.15c.15.8.3,1.6.45,2.44,1.18-.81.57-2,.62-3.32l-1.1.93c-.34-.94.32-2.38-1.75-2.74l2.58-1.68.34,1.55c.19-.16.42-.48.57-.45.79.17,1.47.14,1.4-.87s.32-2.38-1.18-2.78c-1.65-.44-1.42-1.78-1.41-2.93S98,1.74,98.13,0l.42,1.52c.62.18,1.45.28,1.46.45a3.72,3.72,0,0,1-.36,1.64c-.23.55-.62,1-.86,1.57-.1.23,0,.55,0,.83l1-.07,1.35-.1.17-2.43c2.33,2.09.12,4.37.35,6.69L103.45,7l.4.16.31,1.06c1.14-.86,1.38,0,1.59.78l1.34-1.75c.67.52,1.14.83,1.54,1.21.23.22.55.7.46.83a5.44,5.44,0,0,1-1.21,1,8.43,8.43,0,0,1,1.23.63,5.68,5.68,0,0,0,1.46.92l-.51-2.62,1.43.35-.38-2.35,1.73,1.81.58-1.3.22,1.69c.86-1.19-.35-3.42,2-3.62l.4,3.68.32,0c.17-.33.33-.67.51-1,.7-1.31,1.08-1.36,2.15-.39.25.23.69.25,1.29.44a3.07,3.07,0,0,1-.41,3.79c-.19.24-.82.13-1.43.2l-.37.69,0,0c-1.42.32-.89,1.48-.8,2.24a6.73,6.73,0,0,0,1.1,2.09,2.8,2.8,0,0,0,1.67-2.81,6.33,6.33,0,0,1,1.15-3c-.87,2.24-.31,3.8,1.76,4.59l2.39-1.44c1.31,1.43,1.33,3,.07,4.28-.7.68-.56,2.5.37,2.76,1.88.55,1.43,2.18,2.1,3.27l-.4.2-.81-2.19-.37.09.75,3.47L124.73,28l1.11,3.39-1.17-.32.79,2.15c1.46-.39,1.46-.39,2.49,1.5l-.66-3.3.3-.07.65,1.42.28-.07-.23-1.13c1.29.18,2.17-.14,2-1.68l1.09,1.2.32-.11-.28-2.29-.49,0L130.33,30c0-.61-.06-1.22-.1-1.82l0,.11,1.22-1.88L135,29.58l.62-.75.33.07V34c.76-2,1.6-2.31,3.12-1.13,0-1.52-2.57-1.37-1.82-3.09a2.59,2.59,0,0,1,3.08-1.67v4.08c.22-1.17,1.86-2,.69-3.54-.17-.21.42-1,.88-1.46v3.25l2.92-.3h0l-.56,1.14.35.24,2-2.06.75,1.71c-.92-2.18.76-3.83,1.2-5.55l1.41.74.92,1.7a7.07,7.07,0,0,1,2.53-6.73l-.56,2.58.33,0,1.43-2.39c.3.29.67.49.75.78s.12,1.17,0,1.21c-1.92.62-.65,2-1,3,2.27-2.29,4.4-4.59,4.94-8.19.52.49,1,.72,1.06,1.05a2.89,2.89,0,0,0,3,2.41,39.65,39.65,0,0,0,4.6-.49,1.14,1.14,0,0,0,.55-.24c.58-.46,1.14-.94,1.8-1.48l1.1,2.53c-1.78.57-1.76.89-.08,2.59l1.19-2,.79,1,2.2-4.9.63,1.75c.64-.84,1.28-1.66,2.16-2.79.32.82.36,1.22.58,1.43.38.37.91.91,1.3.85s.87-.68,1.26-1.09.64-.73,1-1.2c.89,1.32,1.64,2.32.13,3.37-.16.12-.08.61-.1.93a3.89,3.89,0,0,1-.12,1.3,7.91,7.91,0,0,0-.68,6.18c.31,1,.65,2,1,2.92a10.26,10.26,0,0,0,.52,1l.48-.11a13.79,13.79,0,0,0-.22-1.57,9.83,9.83,0,0,1-.55-1.54,2,2,0,0,1,.35-1.49c.27-.24,1,0,1.53,0,.22-1.11.41-2.4.76-3.65.11-.39.7-.62,1-1,.53-.64,1-1.33,1.53-2-.09,1.39-.18,2.8-.31,4.71l2.5-3,1.91,2.35c.59-1.64,1.1-3,1.6-4.46l.45,0,.42,2.38,1.65-.28c-.82-1.85-.82-1.85-.48-3.09l1,3.23,2.47-2.69c.41,1.62.77,3,1.12,4.42l-.25.11-1.07-1.57-.66,2.05-1.33-1.68c-.2,1.11-.34,1.89-.5,2.81l-1.08-1.69L195.4,28c-.87-.83-1.31-.65-1.74.3-.24.52-1,.81-1.5,1.2l-.37-.32-.3,1.27c-1,.31-2,.55-2.88,1-1.42.62-1.05,1.59-.4,2.68,1-.44,2-1.18,3-.21.1.09.78-.4,1.14-.69.56-.46,1.07-1,1.46-1.33a11.62,11.62,0,0,0,2.74,2c.44.14,1.23-.8,2.09-1.4a10.48,10.48,0,0,1,1,2.05c.06.2-.79.67-1.32,1.1L199,37c1.28-.64,2.74-.94,2.27-2.92a1.77,1.77,0,0,1,.43-1.27,4.22,4.22,0,0,1,1.11-.74c.21.36.57.71.6,1.09a6.67,6.67,0,0,1-.26,1.61l2,.14,1.89-1.8c1.31,1.45,1.85.53,2.28-1,.44,1.3,1.36,2.21-.1,3.18-.24.15.1,1.17.22,2.21l-2-1.44c-.3.8-.4,1.74-.93,2.24s-1.34.19-2.37.29c-.13.67-.31,1.69-.55,3-.72-1.16-1.41-1.06-1.88-.43l-1.65-.49a5.76,5.76,0,0,0-.29,2.16c.39,1.54,1.05,3,1.54,4.52.06.2-.24.5-.33.76a3.79,3.79,0,0,0-.37,1.41,13,13,0,0,0,.66,2.59c.06.17.52.22.79.32l-1.41,2.54.43.25c.48-.62,1-1.24,1.44-1.87S202.71,52.41,202.07,52.39ZM146.64,37l-1.11-2.42-.41.15.71,2.85.85-.63c-.4,2.14-.4,2.14.39,2.69C148.24,37.74,148.14,37.1,146.64,37Zm-17.5,75.5c.18-.16.52-.32.53-.49,0-1-1.39-2.42-2.8-2.68l1.7,2.34c-.29.22-.84.49-.81.67a6.85,6.85,0,0,0,.63,1.83c.1.21.51.51.64.45s.63-.48.61-.7A6,6,0,0,0,129.14,112.49Zm-95-38.93c-.21-.17-.52-.29-.62-.5A13.37,13.37,0,0,1,33,71.43l-1.09,1.49A8.62,8.62,0,0,0,32.68,74c.34.39.79,1.09,1.1,1,1.08-.17.43-1,.33-1.51,1.32,0,1.52-.71.42-2.65Zm80.6-60.38-1-.87L113,16.25l.44.1.76-.81.73,1.4c-.08-1.59-.14-2.69-.19-3.8.33-.3,1-.64.93-.9-.13-1.16-.45-2.3-.74-3.64-.23.33-.43.49-.42.64C114.56,10.56,114.66,11.87,114.76,13.18Zm63.7,14.64.41-1.87c-1,1-1.71,2-1.29,3.48l.91-1.66c-.06.84-.12,1.69-.2,2.66l.64-.34,1.38,1.19c.29-.59.61-1.16.85-1.76.07-.19-.08-.5-.19-.72-.51-1.05-1-2.09-1.53-3.06Zm-75.52,7.71,1.81,2.53.09-.38,1.93.31.16,1.63-1.11-.38-.31.3,1.54,2.39.28-.48c.55.14,1.36.11,1.58.46a6.71,6.71,0,0,1,.43,2.26c1-1.21,1.43-.22,1.74.44.64,1.38,1.83,1.25,2.86,1,1.18-.34.34-1.37.34-2.09a13.67,13.67,0,0,0-.21-1.88l-1.47.83V39.68l-1.46,2-.31-.09V38.11l-2,1.31c-.3-.7-.58-1.43-.92-2.13-.09-.17-.38-.24-.58-.35L107.08,34l-.52,0-.58,2.1-.32-2.32-.87,1.72-1.86-3.68-.47,3-1.17-.27v2.77C102.55,37.25,103.28,36.85,102.94,35.53ZM135.8,112c.84,0,2.07.41,2.42,0,.6-.67,0-1.47-.94-1.78l-.76,1.11-1.24-1,.34,1.3-1.1-.44c-.35,1.21-.7,2.27-1,3.35-.07.29,0,.83.17.93,1.6.89,0,2.34.62,3.36l-.75-1.2c-1.49,1.87-1.43,4-1.56,6,0,.2.32.54.55.6s.55-.3.58-.49c.17-1.48,1.45-1.12,2.3-1.4a4.26,4.26,0,0,1,1.29,0l.23-.54-1.72-1.2c-.05-.92.36-1.62,1.84-1.57,1.2,0,1.47-.79.77-2.22l-.4.62-1.46-.62C136,115.28,135.88,113.65,135.8,112Zm-53.86-7.17c.75,1,1.28,2.31,2.76,2.44.82-1.72-.83-2.32-1.24-3.43l1.14.36.31-.91,1,.72.42-.43L81.47,98c-.78.3-1.3.69-1.73.61-1.3-.23-1.43.42-1.48,1.45a9.89,9.89,0,0,1-.59,2.14l-.45.3Zm55.5,37.22.37-1.64-.46-.13-1.44,3.49.41.22.73-.42-.32,1.39-.82-.2.24,2.13-.27,0-.78-1.43-.4.08-.26,2.62,3.1-.59-.54,2.83.45.1.78-2.86c1.39.25,2-.45,2-1.85a8.39,8.39,0,0,1,.38-1.31,14.69,14.69,0,0,0,.26-6.61h-1.51Zm-42.62,5.06a13.83,13.83,0,0,0,1.94,2c1.47,1,3.06,1.81,4.58,2.73,1.15.7,2.22,1.53,3.41,2.12,1,.51,2.18-.49,1.61-1.41s-.31-2-.82-2.51c-1.35-1.47-.58-2.37.3-3.23.32.18.62.49.79.43.67-.23,1.89-3.08,1.64-3.74a.73.73,0,0,0-.39-.38c-.73-.25-1.47-.45-2.2-.71-.46-.16-1.08-.29-1.32-.64a23.77,23.77,0,0,1-1.42-2.75l-.56.26,1.48,3.66-.9-.64-.7,1.41c-.11-.18-.2-.37-.32-.53-.25-.32-.52-.63-.78-.94a6.79,6.79,0,0,0-.52,1.09,14.63,14.63,0,0,0-.22,1.61L99.34,144c-.2,1.74-1.06,1.86-2.34,1.27l.63-3.07H95.45c-.13,1-.21,1.8-.37,2.64-.12.61-.34,1.21-.51,1.81l-2.73-3.42-.55.31a18.13,18.13,0,0,0-.81-2.88c-1-2-2.72-2.68-4.09-1.55l-.26-1.33c-1.48,1.42-1.56,3.27-.29,4.21s2.81,2.15,4.26,3.15c1.22.84,2.49,1.61,3.79,2.33C94.07,147.57,94.5,147.25,94.82,147.13Zm63.5-95.06-.07-.07.3,1.89c-2.35-.41-2.5-.3-2.9,1.58,0,.11-.44.14-.7.21l-.33,3.1-1.5-1.87-.73,2.83L151.16,61l-1.43-1.52-.37.18V63l-1-.93.5,3.23a6.21,6.21,0,0,0,.74-.2c.18-.08.34-.25.53-.29,2.36-.54,2.37-.54,2.3-3.11,0-.66,0-1.31-.06-2l1.22-.64.34,1.5,1.38-1c1.06,1.73,2.76,1,4.39,1.07l2.19-3.5v2.38c2.87-1.79,2.87-1.79,4.16-1.17,2.1-3.9,1.33-7.66-.5-11.52l-1.31.75c-2.54-1.19-1-2.68-.31-4.24l-1.27.28.55-1.48,3.24-.46-1.05-2.12c.38,0,1.12-.06,1.14-.18a15.11,15.11,0,0,0,.17-2.85,1.58,1.58,0,0,0-1-.3,10.45,10.45,0,0,0-1.17,2.09,6,6,0,0,0-.2,1.49c0,.29-.11.57-.16.85l-.36-.46-.39-3.43c-1.56,1.72-3,3-5.3,2.68-.32,0-.72.46-1.11.74l-.84-.59-1,3.52-.62-3.13-.44.06v5.41c-1.17-.68-1.31.06-1.37.85s-.52,1.79.58,2l.81,3.52.53,0,.58-4Zm10.84-28-1.68,1.45-.72-.88c-.58,1.34-1.62,2.58-1.44,3.6a4,4,0,0,1-.78,3.06,25.47,25.47,0,0,0-1.1,2.37l.45.2.82-1.39c.59.18,1.26.19,1.42-.1.57-1,.93-2.1,1.43-3.13.13-.27.47-.45.85-.8.24,1.22.41,2.13.59,3h.33l.41-1,.38,0v3l.47.05.55-1.46c.73.3,1.49.9,1.91.71.67-.3,1.11-1.12,1.72-1.79l.9.73a6.69,6.69,0,0,0-2-5.64c-.51,1.16,1.3,2.62-.39,3.59-1.28-.92-1,.9-1.78.9-.6-.36-1.52-.59-1.81-1.15-.45-.86-.95-2.2-.59-2.88,1-1.88,1.16-2.19-.35-4.28ZM51.55,104l-1.39-1.53.22-1.21-1.78,1.54-.14-2.11-.24,0L47,104.12,46,103.4l-.45.12c.11.64,0,1.46.36,1.86,1.12,1.26,2.42,2.36,4,3.87.36-.23,1.07-.62,1.71-1.09,1.55-1.13,3.13-2.23,4.59-3.47a3.39,3.39,0,0,0,.93-1.91c0-.24-.85-.61-1.39-1-.95,2.92-1,2.93-3.15.72Zm49.54,22.72-.74,0c.32,1.31.61,2.64,1,3.93.21.72,2.59,1.8,3.22,1.57l4.81-1.71v-2l-1,1.49-.37-.05v-3.57l-.31,0-1.27,2c-.63-3.45-1.14-4-3.52-3.74l-.19,2.94h-.15l-.09-2ZM102.22,49c1.67-1.46,2.65-3,2.19-4.78l2.32-2.26c-1.84-.45-3.35-1.54-4.44.66l-.49-2.15-1.21,1.31L100,39.8a6,6,0,0,0-1,5.58C101.38,45.3,101.78,47.08,102.22,49Zm5.9.73c-1.6,1.22,0,2.91-.67,4.16l-1.73-2.16L105,56.31l.46.26.89-1.78L109.78,58l2.63-1c-.46-1-.94-2-1.38-2.95-.22-.51-.35-1.06-.56-1.57-.11-.27-.49-.67-.43-.73,1-1.1.12-1.84-.42-2.83l-.44,2.21ZM200,47.24l-1.44.65c-.21-.78-2.53-2.45-3.23-2.24a1.55,1.55,0,0,0-.85.89c-.17.46,0,1-.17,1.5a1.94,1.94,0,0,1-.88,1,5.67,5.67,0,0,1-1.45.32c.21.6.4,1.21.65,1.8.14.35.58.92.54,1-1.26,1-.14,1.89.17,2.78a8.33,8.33,0,0,0,.73,1.34,12.14,12.14,0,0,0,1.22-1.56,1.69,1.69,0,0,0,.08-.91c-.63-.49-1.5-.85-1.5-1.21,0-1.65,1.55-1.14,2.67-1.55l-.74-1.59-1.38.23.77-3.19c2.67.73,3.59,3.26,5.31,4.74ZM142.67,63.35l-2.37-1.81-1.55,2.68-.66-.7-.56,1.86,3.2,1.17c1.49-1.76,2.2.32,3.43,1.14a19,19,0,0,0-.17-4.22C144,63.36,143.12,63.38,142.67,63.35ZM70.73,126.67v1.71c2.32.34,3.23.73,3.89,2.32a1.49,1.49,0,0,0,2.52.72,3.77,3.77,0,0,0,1-2.79c0-.56-1.16-1.06-1.92-1.68l-1.67,1.43-.7-1.75-2.07,1.43a3.72,3.72,0,0,0-.27-.48C71.38,127.38,71.21,127.21,70.73,126.67Zm61.64,12.48-.34.16a29.5,29.5,0,0,0,.43,3c.17.7,2.54,1.31,2.8.74a14.71,14.71,0,0,0,1.33-4c0-.44-1.19-1-1.84-1.57a4.59,4.59,0,0,1-.43-.44L133,140.52Zm12.16-70.08c1.53,0,2.58.07,3.61,0,.34,0,.92-.62.88-.88a18.21,18.21,0,0,0-.81-3.15c-.15-.43-.63-1.14-.82-1.1-.58.13-1.39.44-1.58.89A38.39,38.39,0,0,0,144.53,69.07Zm23.7-12.57,1.61-2.27A6.59,6.59,0,0,0,171.6,54c.18-.08.28-.77.14-1-.47-.92-1.07-1.78-1.64-2.7L169.16,52a16.94,16.94,0,0,0-.39-1.9,9.08,9.08,0,0,0-.71-1.29c-.24.53-.72,1.09-.67,1.6C167.55,52.31,167.9,54.21,168.23,56.5ZM45.06,96.11l-.54.11L44.65,99l-1.41-1.86A5.37,5.37,0,0,1,43,98.76c-.21.32-.69.48-1,.7l.44,1.36.4-1.1c.69,0,1.87-.15,1.92,0,.46,1.65,1.73.81,2.53.79,1.59,0,2.62-2.45,1.71-3.69-.2,1.68-.19,1.64-2,1-.27-.1-.74.35-1,.46Zm61.26-16.93a54.54,54.54,0,0,1,3.26-5.91c1.51-2.13,1.88-4.24.77-6.24-.35,1.14-.43,2.79-1.26,3.84C107.12,73.36,107.05,76.35,106.32,79.18ZM89.69,98.61c-.58.16-1.13.15-1.4.42a5.42,5.42,0,0,0-.79,1.42c-.06.1-.21.15-.31.23-.31.25-.9.52-.88.74a2.39,2.39,0,0,0,.62,1.56c1.59,1.21,3.81.37,4.55-1.71C89.69,101.22,90,99.69,89.69,98.61ZM57.06,108.5c-.08,1.31-.11,2.42,1.17,2.81A2,2,0,0,0,60.89,110c.52-1.25,1-2.53-.25-3.63a1.52,1.52,0,0,0-1.2-.29,1.13,1.13,0,0,0-.45,1C59.31,108.65,58.53,108.9,57.06,108.5Zm62.6,51.63-.31-.07.18-2.77-.38,0c-.28.79-.61,1.56-.83,2.36a4.44,4.44,0,0,0,.92,4.4,1.54,1.54,0,0,0,1.24.46c.93-.31,1.58-3.28.79-3.52-1.15-.36-.69-1.05-.84-1.65,0,0-.16-.08-.31-.14ZM60.59,96.69c-.16,2,.27,3,1.8,3.52.64.23,1.55-.32,2.34-.52l.17-.55-1.17-.38.27-.37,2.34-.22c.08-2-2.53-1-2.9-2.55l-.1,2L62,96.76l-.4,2ZM77.81,84.12V88.6c2.52-2.22,1.6-4.82,1.28-7.59l-1.26,1.55-.56-1.45-.37,0V85Zm51.58,36.94a8.39,8.39,0,0,0,.05-1.29A10,10,0,0,0,129,117c-.1-.23-1.23,0-1.92,0l-.11,1.42-1.63-.83C125.94,120.46,126.81,121.17,129.39,121.06Zm1.61-37a8.91,8.91,0,0,0,1.75-2.26c.28-.86.41-2.11-1.29-2.12l-.28,1-1.49-.8-.44.26c1,1.33-1.08,3.14,1.22,4.58L130,83.22l.29-.17Zm48.54-26.81-.43-.2c-.22.1-.5.14-.63.31a23.28,23.28,0,0,0-1.73,2.35c-1.07,1.79-1.14,2.83.94,3.77Zm-1.88,59.43.58-.25c-.25-.52-.37-1.29-.78-1.5-1.34-.71-1.76.46-2.05,1.12-1.44.25-1.36-2.14-3-1.4-.64,1.62.61,2.57,1.44,3,1.77,1,2.34-1.09,3.48-2Zm31.2-60c-1.57-.34-2.12.15-2.22,1.89l1.42.22c.18-.43.37-.85.69-1.6l1.59,3.22c1-2.13.6-4-1-4.91ZM159.59,25l.93,1.49c.2-1.09.31-1.75.46-2.61l2,1.36c.14-2.63-2.85-2-3.59-3.74l-.46.16c.17.76.34,1.52.55,2.43l-1.61,1,1,1.59ZM112.74,159.31a17.57,17.57,0,0,0,1.45,1.55c.84.72,1.85.34,1.76-.74a33.92,33.92,0,0,0-.86-4.17l-.39.09-.13.81c-1.46-.57-.8.48-.9,1.09C113.6,158.36,113.16,158.71,112.74,159.31ZM219.84,52.05c0-.57.1-1.37.13-2.18.07-1.83.06-1.83-1-2-.06.51-.11,1-.2,1.92l-1.2-1.55v3.61ZM135.28,40.39,135.5,37c1.57.86,1.46-.87,2.15-1.36.19-.13,0-.74,0-.94l-3.55.45ZM58,132.09l-.32.11.15,2.62c2.78,0,2.4-.6,4.06-3.12l-2.07.72-.42-1.09-1.17,1.75Zm55.9,23.66c-.67-.06-1.36-.07-2-.19-1.06-.18-2.11-.48-3.18-.6-.25,0-.55.46-.83.71.21.23.4.63.65.67C110.29,156.67,112.22,158,113.85,155.75Zm8.24,4.24c.11,1.66.21,3.12.31,4.62l1.43.13a9.27,9.27,0,0,1,.22-2.05A2.29,2.29,0,0,0,122.09,160Zm2.52-25.71c-1.2,1.08-2.14,1.81-2.94,2.67-.54.56-.33,1.17.45,1.37a1.84,1.84,0,0,0,2.49-2C124.6,135.81,124.61,135.3,124.61,134.28Zm30.75-3,.6-4.34a14.19,14.19,0,0,0-1.63,1.39,19.55,19.55,0,0,0-1.22,1.84Zm-46,4.35c.47-1,2.11-.44,1.73-2a2.76,2.76,0,0,0-3-1.7Zm50.37-17.49c-2.43,1.16-3.07,3.28-3.59,5.11a21.74,21.74,0,0,1,3.13-3C160.65,119.38,160.8,119.4,159.75,118.13Zm-37.64,14.4c-.63.6-1.51,1.06-1.66,1.69a7.28,7.28,0,0,0,.46,2.67C122.5,135.58,123.59,134.41,122.11,132.53Zm-11.6-97.76,4.17,1.66c-.33-2.16-1.86-2.69-3.48-3.27ZM86.83,83.88l-.31.13v6.35l.66.06c.12-1,.23-1.89.33-2.84a8.55,8.55,0,0,0,.18-2.24C87.62,84.83,87.13,84.37,86.83,83.88ZM144.89,139l-.49,0c-.3,1.24-.62,2.48-.84,3.73,0,.19.4.46.62.7.55-.69,1.41-1.31,1.55-2.07S145.2,139.78,144.89,139ZM116.47,57.29c.46-1.7.42-3.11-1.54-3.67C114.1,56.14,114.56,57.31,116.47,57.29Zm51.08-20.5a5.1,5.1,0,0,0,.41,4.15.77.77,0,0,0,.71.31,1.34,1.34,0,0,0,.61-.73C169.84,38.86,168.26,38.23,167.55,36.79ZM117.38,139l.43.31a14.2,14.2,0,0,0,2.31-1.73c.23-.24-.09-1-.16-1.54-.54.07-1.38,0-1.55.26A14.35,14.35,0,0,0,117.38,139ZM66.11,93c1.36-.81,1.78-1.75.28-3-.28.93-2-.36-1.77,1.14C64.71,91.83,65.6,92.42,66.11,93ZM38.72,104l-.28-.07-.78,2,2.77,1,.21-3.39-.43-.06L39,105.46l-.26-.14Zm58.63,33.77a10.32,10.32,0,0,0-.07,2.23,1.94,1.94,0,0,0,.83,1.21,1.25,1.25,0,0,0,1.14-.39,2.34,2.34,0,0,0-.17-1.65A7.92,7.92,0,0,0,97.35,137.77Zm27.12,6a7.65,7.65,0,0,0-1.75.61,1.46,1.46,0,0,0-.43,1,17.74,17.74,0,0,0,1.9,1.1c.15-.73.34-1.45.45-2.18A1.15,1.15,0,0,0,124.47,143.73Zm57.78-22.16-.6-.06c-.24.49-.73,1-.65,1.46s.81.63,1.2,1a7.64,7.64,0,0,1,1,1.17,6.79,6.79,0,0,1,.49,1.06l.57-.26ZM126.09,62.51l-.5.05a4.66,4.66,0,0,0-.5,1.65,6.13,6.13,0,0,0,.79,1.74c.44-.62,1.12-1.19,1.23-1.86C127.19,63.63,126.46,63,126.09,62.51Zm70.78-9.92h-.39a31,31,0,0,0-.92,3.26c-.06.35.41.8.64,1.2a4.09,4.09,0,0,0,.65-1.09,8.08,8.08,0,0,0,.11-1.78C197,53.65,196.9,53.12,196.87,52.59ZM141.52,97.4l-2.8-2.19c-.79,1.57-.3,2.51.68,3C139.76,98.41,140.52,97.81,141.52,97.4Zm81.3-43.58c-.24-1.92-.48-3.84-.71-5.63C219.89,50.16,221.48,52,222.82,53.82ZM102.16,73.41l1.15,4.9C104.35,76.23,103.91,74.13,102.16,73.41Zm30.55,71.75c-1.53.65,1,2.48-1.31,2.43.34.64.57,1.12.85,1.56a3.56,3.56,0,0,0,.59.57c.16-.27.49-.56.47-.81C133.17,147.73,132.94,146.56,132.71,145.16Zm11.55,2c-2,.87-2.57,1.74-2.38,3.58C142.94,150.5,144,148.92,144.26,147.14ZM74.31,83.58c2.54-1.45,2.82-2.86,1.42-3.64A16.91,16.91,0,0,0,74.47,82,4.83,4.83,0,0,0,74.31,83.58ZM68,49.78c-2.28.38-2.69,1-2.94,4Zm64.39,121.34c.11-2.22.21-4.29.32-6.36l-.41,0c-.31,2-.61,3.93-1,6.1ZM60.87,100.86c-.86,2.09-.36,3.09,1.44,2.93C62.58,102.49,62.44,101.39,60.87,100.86Zm66.18-59.48.55.38.62-1.33.31.2-.08,1.55.24.11.79-1.45-1.55-2.51ZM114.7,80.27l-.8.28,2,5.07.57-.21ZM68.22,55.52l.5.35L71,52C68.16,52.34,69,54.43,68.22,55.52ZM111,106.05c0,.69-.15,1.47,0,1.56a3.13,3.13,0,0,0,2.09.45c.67-.27,1.11-1.14,1.65-1.75l-.27-.42A2.24,2.24,0,0,1,111,106.05ZM83.66,83l-.55-.15c.72,1.67-2.28,1.78-1.25,3.63l2-.34c-.09-.55-.19-1-.23-1.52S83.66,83.49,83.66,83ZM118,154.2a3.27,3.27,0,0,0,0,4.85ZM187.53,51.76c-1.56,1.94-1.5,2.25.62,4.32Zm25.38,1.43-.75.42,2.21,3.61.74-.45ZM140.7,145.55c1.83-1.09,2.49-2.85,1.55-4.39Zm1.77-44.6.1-.35c-1-.25-1.93-.53-2.9-.73a.69.69,0,0,0-.58.33.79.79,0,0,0,.2.66,12.1,12.1,0,0,0,1.13.82ZM89.19,86.68c-1.87,1.43-.69,2.22.36,3.12.07-.87,1.91-.09,1.27-1.51-.08-.18-.89,0-1.44,0Zm4.41,3.21-1.82-4.36C91.25,88.35,91.37,88.61,93.6,89.89ZM28,70.7c.7-1.22,1.66-2.69.75-5-.43.8-.91,1.28-.93,1.78A27.7,27.7,0,0,0,28,70.7Zm71.65-1.15.73,4.65C101.37,72.65,101.16,71.1,99.62,69.55Zm73.59,7c-1.62,1.13-1.62,1.13-1.06,3C173.58,79,174,77.68,173.21,76.55Zm-91.35,4c-.17,1.82-.82.37-1.31.46,0,.53-.08,1-.14,1.42s-.13.8-.22,1.33C82.71,82.21,82.71,82.21,81.86,80.58Zm31.78,48.62.41-.09c.25-1.77.37-3.5-1.52-5ZM61,76.73c-.11.46-.55,1.25-.32,1.59a1.93,1.93,0,0,0,1.71.47c.43-.11.71-.83.89-1.07Zm14.89-1.35c-.22,1.47,0,2.39,1.5,2.57a6.43,6.43,0,0,0,.76,0c0-.3,0-.72-.13-.88C77.42,76.53,76.73,76.05,75.88,75.38ZM194.27,43.59c.47-.19.77-.22.91-.39a15.37,15.37,0,0,0,.94-1.3,7.84,7.84,0,0,1-1.29-.1,7.34,7.34,0,0,1-1.27-.67Zm-109,41.16-.43,0L84,86.89l2.49.36ZM95,24.44l.47-2.25a7.33,7.33,0,0,0-1.5.3,4.29,4.29,0,0,0-.88.78l.86.5ZM121.4,53.72l-2.48.74,1.93,1.87Zm6.45,124.37c.34-1.7.4-3.31-1.49-4.22C126.86,175.27,127.36,176.68,127.85,178.09ZM106.55,18.91l.85.13c.13-1.3.25-2.61.38-3.91L107.2,15C107,16.33,106.76,17.62,106.55,18.91Zm4.68-2.44.94.34.85-3.4-.58-.19ZM76.46,114.08l2,1.73a4.66,4.66,0,0,0,.18-1.59C78.39,113.06,77.65,113.45,76.46,114.08Zm-23-18.32.54,3h.43l.87-2.44Zm171.25-48.3c-1.74,1.17-1.16,2.65-.54,4.14ZM122.05,53l-.26,0v3.42l1.37-.77ZM114,150l-.43-.38a10.13,10.13,0,0,0-1.56,1c-.14.11,0,.87.14.91.45.12,1.14.24,1.38,0S113.82,150.52,114,150ZM147.8,47.69l1.11,3.15.45-.17C149.09,49.67,150.26,48.13,147.8,47.69ZM191,65.17l.67-.17-.78-3-.75.2ZM133.42,165.36l.49.06a18.73,18.73,0,0,0,.71-2.24c.06-.29-.25-.66-.4-1-.26.23-.73.45-.76.72A20,20,0,0,0,133.42,165.36ZM75.49,112.93,74.9,116C76.8,115.34,76.9,114.62,75.49,112.93ZM58.33,102.6l.87-1.22c-1.09-.29-1.22-2-2.68-1.35Zm44.33-91.41,2.53,1.42C105,10.68,104.84,10.6,102.66,11.19Zm-7.48,96.64.53.33a3.72,3.72,0,0,0,.56-1,7.4,7.4,0,0,0,0-1.76c0-.08-.59-.21-.6-.19a7.4,7.4,0,0,0-.53,1.47A5.2,5.2,0,0,0,95.18,107.83Zm31.45-24.51-1.82.32v1.23l1.82.21ZM83.31,97.51l-.49.29,1.71,2.61C85.21,98.82,84.44,98.08,83.31,97.51Zm24.42-70.6c-2.25,1.87-2.25,1.87-1.72,3.24ZM127.85,85.8l.49,0V82.25h-.49ZM59.79,81.51l1.75-1.93-.2-.21-2.58.8ZM111,130.75c.35.89.7,1.77,1.16,2.95C112.85,131.92,112.63,131.32,111,130.75Zm28.55-96.66-.66.24L140.29,38l.47-.16C140.35,36.6,140,35.34,139.54,34.09ZM63.72,18.79c-.58,2.58-.53,2.89.59,3.6ZM68.41,61.1l.24.51,1.84-.5-1.13-1.47ZM118.5,82.72l.36.12,1.07-3.1-.71-.22ZM42.55,124.14l-.54-.22c-.56.9-1.39,1.7-.69,3.08Zm97.77,28.66-.6-.06-.32,2.86.45.06C140.31,154.75,141.1,153.9,140.32,152.8ZM173.13,24.93l-.63-.19c-.32,1.2-.65,2.4-1,3.59l.36.12Zm-60.89,24.7-.39-.06a6.57,6.57,0,0,0-.47,1.69c0,.28.5.58.77.86.15-.3.44-.62.43-.92A8.18,8.18,0,0,0,112.24,49.63Zm1.93,15.56-.75,3.1C115,66.57,115,66.54,114.17,65.19Zm80,1,.44-.13-1.2-4.13L193,62Zm-63.92,76v-3.08l-.48,0a4.64,4.64,0,0,1,0,1.79C129.37,141.76,129.27,141.71,130.29,142.15ZM56.09,94.4l.61,2.16.53.09.67-2.25ZM169.77,64.45l-.42,0c-.06.94-.13,1.88-.2,2.82l.62,0ZM114.58,45.21c1.9.1,2.13-.35,1.32-2.25Zm53.83,15.47.55,3.13C169.83,62.41,169.87,61.57,168.41,60.68ZM83.79,139.84l.41-.12-.13-2.08-1.94.41Zm24.44-104,.53.25c0-1,2.69-1,.84-2.73Zm-66,68.12c-1.53,1-.59,1.72-.23,2.51l.45,0Zm84.58,8.53-.81.29a7,7,0,0,0,.61,1.6c.12.18.71,0,1.08.05Zm13.64,35.92.73.36,1-2.34-.55-.27ZM125.18,75l-.51.08.4,3.2.58-.08ZM93.23,81.26l.69.1c.11-1.1.21-2.21.32-3.31L93.79,78Zm99.59,35.91L191,114.26l-.35.23C191.57,115.17,190.69,117.12,192.82,117.17ZM64.48,78.71a15.09,15.09,0,0,0,2-1.2c.21-.19.19-.66.28-1-.32,0-.8-.14-.92,0A24.06,24.06,0,0,0,64.48,78.71Zm42.59-34.82c-.12.68-.29,1.35-.35,2a.81.81,0,0,0,.47.62.89.89,0,0,0,.76-.26,1,1,0,0,0,0-.82A15.43,15.43,0,0,0,107.07,43.89ZM53,98.37l.48-.25-1.28-2.21C50.83,97.73,52.8,97.59,53,98.37Zm81.17,53.7c1.13-.88.86-1.78.55-2.68l-.55,0Zm47.3-95.86-.45.22,1.53,3,.47-.24C182.49,58.16,182,57.19,181.45,56.21ZM73.7,55.28c1.13-1.43,1.48-2.6.57-3.76Zm63.42,50.07-.71.49a14.23,14.23,0,0,0,1.07,1.36c.08.08.48-.15.73-.24ZM126,58.14c-.7-.36-1.25-.86-1.52-.73-.48.22-.79.82-1.13,1.21Z"/></g></g></svg>